<svg width="446" height="111" viewBox="0 0 446 111" fill="none" xmlns="http://www.w3.org/2000/svg">
<path d="M130.702 103.315V7.65329H206.118V0.0641109L121.921 0.0322266L121.89 110.936H206.952V103.347L130.702 103.315Z" fill="#FFFF00"/>
<path d="M187.194 51.2109H152.532V58.8001H187.194V51.2109Z" fill="#FFFF00"/>
<path d="M404.72 13.7437H395.938V111H404.72V13.7437Z" fill="#FFFF00"/>
<path d="M445.999 0.0959473H354.69V7.68512H445.999V0.0959473Z" fill="#FFFF00"/>
<path d="M296.807 53.9215L252.745 0.446533H242.727L287.253 54.4636L241.026 110.681H250.179L296.807 53.9215Z" fill="#FFFF00"/>
<path d="M274.049 53.8898L229.987 0.414795H219.969L264.495 54.4319L218.269 110.649H227.421" fill="#FFFF00"/>
<path d="M307.042 44.0368L342.879 0.638184H332.768L302.219 38.1695L307.042 44.0368Z" fill="#FFFF00"/>
<path d="M306.672 64.5081L301.632 70.6304L334.222 110.84H344.488L306.672 64.5081Z" fill="#FFFF00"/>
<path d="M91.7108 0.0318892L91.6798 98.5636L8.31766 0.0318892L0.0309226 0L0 110.904H8.47227L8.50319 12.3723L91.8344 110.904H100.121L100.152 0.0318892H91.7108Z" fill="#FFFF00"/>
</svg>
