<svg xmlns="http://www.w3.org/2000/svg" xmlns:xlink="http://www.w3.org/1999/xlink" width="2000" zoomAndPan="magnify" viewBox="0 0 1500 1499.999933" height="2000" preserveAspectRatio="xMidYMid meet" version="1.0"><defs><g/><clipPath id="b78e57991e"><path d="M 468.390625 619.578125 L 660.429688 619.578125 L 660.429688 815.367188 L 468.390625 815.367188 Z M 468.390625 619.578125 " clip-rule="nonzero"/></clipPath><clipPath id="219f6a813b"><path d="M 483.390625 619.578125 L 645.429688 619.578125 C 653.710938 619.578125 660.429688 626.292969 660.429688 634.578125 L 660.429688 800.253906 C 660.429688 808.539062 653.710938 815.253906 645.429688 815.253906 L 483.390625 815.253906 C 475.109375 815.253906 468.390625 808.539062 468.390625 800.253906 L 468.390625 634.578125 C 468.390625 626.292969 475.109375 619.578125 483.390625 619.578125 Z M 483.390625 619.578125 " clip-rule="nonzero"/></clipPath><clipPath id="ca7fd53a44"><path d="M 0.390625 0.578125 L 192.429688 0.578125 L 192.429688 196.28125 L 0.390625 196.28125 Z M 0.390625 0.578125 " clip-rule="nonzero"/></clipPath><clipPath id="fa4d99836b"><path d="M 15.390625 0.578125 L 177.429688 0.578125 C 185.710938 0.578125 192.429688 7.292969 192.429688 15.578125 L 192.429688 181.253906 C 192.429688 189.539062 185.710938 196.253906 177.429688 196.253906 L 15.390625 196.253906 C 7.109375 196.253906 0.390625 189.539062 0.390625 181.253906 L 0.390625 15.578125 C 0.390625 7.292969 7.109375 0.578125 15.390625 0.578125 Z M 15.390625 0.578125 " clip-rule="nonzero"/></clipPath><clipPath id="4a40945af3"><rect x="0" width="193" y="0" height="197"/></clipPath><clipPath id="b89480b62a"><path d="M 478 631 L 653.296875 631 L 653.296875 804 L 478 804 Z M 478 631 " clip-rule="nonzero"/></clipPath><clipPath id="471113b044"><rect x="0" width="534" y="0" height="54"/></clipPath></defs><path stroke-linecap="round" transform="matrix(0.749982, -0.00512647, 0.00512647, 0.749982, 329.457838, 682.644065)" fill="none" stroke-linejoin="miter" d="M 15.999303 16.000982 L 23.051543 16.002311 " stroke="#fd6603" stroke-width="32" stroke-opacity="1" stroke-miterlimit="4"/><path stroke-linecap="round" transform="matrix(0.749969, 0.00685273, -0.00685273, 0.749969, 370.602189, 682.544225)" fill="none" stroke-linejoin="miter" d="M 16.00018 15.998634 L 99.081791 15.999936 " stroke="#ffffff" stroke-width="32" stroke-opacity="1" stroke-miterlimit="4"/><g clip-path="url(#b78e57991e)"><g clip-path="url(#219f6a813b)"><g transform="matrix(1, 0, 0, 1, 468, 619)"><g clip-path="url(#4a40945af3)"><g clip-path="url(#ca7fd53a44)"><g clip-path="url(#fa4d99836b)"><path fill="#fd6603" d="M 0.390625 0.578125 L 192.429688 0.578125 L 192.429688 196.367188 L 0.390625 196.367188 Z M 0.390625 0.578125 " fill-opacity="1" fill-rule="nonzero"/></g></g></g></g></g></g><path stroke-linecap="round" transform="matrix(0.75, 0, 0, 0.75, 281.433964, 719.67695)" fill="none" stroke-linejoin="miter" d="M 15.999507 15.998443 L 132.999517 15.998443 " stroke="#ffffff" stroke-width="32" stroke-opacity="1" stroke-miterlimit="4"/><path stroke-linecap="round" transform="matrix(0.75, 0, 0, 0.75, 315.934753, 754.136171)" fill="none" stroke-linejoin="miter" d="M 15.998455 16.000732 L 134.342215 16.000732 " stroke="#ffffff" stroke-width="32" stroke-opacity="1" stroke-miterlimit="4"/><path stroke-linecap="round" transform="matrix(0.75, 0, 0, 0.75, 476.478088, 837.58654)" fill="none" stroke-linejoin="miter" d="M 19.997967 19.999199 L 214.487567 19.999199 " stroke="#fd6603" stroke-width="40" stroke-opacity="1" stroke-miterlimit="4"/><g clip-path="url(#b89480b62a)"><path fill="#fff5ea" d="M 650.644531 681.269531 L 642.960938 683.523438 L 637.125 678.027344 C 636.644531 677.582031 635.964844 677.410156 635.316406 677.582031 L 627.632812 679.835938 L 621.792969 674.339844 C 621.316406 673.894531 620.632812 673.722656 619.984375 673.894531 L 612.300781 676.148438 L 606.460938 670.652344 C 605.984375 670.207031 605.300781 670.035156 604.652344 670.207031 L 596.96875 672.460938 L 591.132812 666.964844 C 590.652344 666.519531 589.96875 666.347656 589.320312 666.519531 L 581.640625 668.773438 L 576.925781 664.332031 L 573.480469 646.238281 L 576.039062 633.671875 C 576.414062 632.101562 574.503906 630.804688 573.207031 631.761719 L 566.511719 636.199219 L 559.445312 632.851562 C 558.863281 632.578125 558.148438 632.613281 557.601562 632.988281 L 550.945312 637.429688 L 543.773438 633.910156 C 543.191406 633.636719 542.476562 633.671875 541.929688 634.046875 L 535.269531 638.488281 L 528.101562 634.96875 C 527.519531 634.695312 526.804688 634.730469 526.257812 635.105469 L 519.597656 639.546875 L 512.429688 636.027344 C 511.847656 635.753906 511.132812 635.789062 510.585938 636.164062 L 503.859375 640.46875 L 496.6875 636.949219 C 496.109375 636.675781 495.390625 636.710938 494.84375 637.085938 L 488.152344 641.492188 L 480.980469 637.941406 C 479.546875 637.1875 477.839844 638.691406 478.421875 640.226562 C 478.421875 640.226562 482.585938 652.347656 482.585938 652.347656 C 481.152344 674.269531 479.136719 699.671875 483.78125 721.253906 C 483.78125 721.253906 488.835938 748.023438 488.835938 748.023438 L 486.273438 760.585938 C 485.898438 762.125 487.808594 763.457031 489.109375 762.5 C 489.109375 762.5 495.765625 758.058594 495.765625 758.058594 L 502.9375 761.578125 C 503.515625 761.882812 504.234375 761.816406 504.78125 761.476562 L 511.4375 757.035156 L 518.609375 760.554688 C 519.1875 760.859375 519.90625 760.792969 520.453125 760.417969 L 527.109375 755.976562 L 534.28125 759.527344 C 535.066406 759.9375 535.953125 759.597656 536.601562 759.085938 L 535.679688 767.28125 L 529.535156 778.546875 C 528.714844 779.945312 530.148438 781.722656 531.6875 781.210938 C 531.6875 781.210938 539.367188 778.957031 539.367188 778.957031 L 545.207031 784.453125 C 545.683594 784.898438 546.367188 785.070312 547.015625 784.898438 L 554.699219 782.644531 L 560.539062 788.140625 C 561.015625 788.585938 561.699219 788.757812 562.347656 788.585938 L 570.03125 786.332031 L 575.867188 791.828125 C 576.347656 792.273438 577.03125 792.445312 577.679688 792.273438 L 585.359375 790.019531 L 591.199219 795.515625 C 591.679688 795.960938 592.359375 796.132812 593.007812 795.960938 L 600.691406 793.707031 L 606.53125 799.203125 C 607.007812 799.648438 607.691406 799.820312 608.339844 799.648438 L 616.023438 797.394531 L 621.863281 802.890625 C 622.988281 804.019531 625.105469 803.097656 625.003906 801.492188 C 625.003906 801.492188 624.558594 788.652344 624.558594 788.652344 C 632.34375 767.960938 642.039062 743.6875 643.851562 721.59375 L 646.753906 695.40625 L 652.898438 684.171875 C 653.617188 682.566406 652.183594 680.757812 650.644531 681.269531 Z M 483.371094 643.265625 L 487.46875 645.28125 C 488.050781 645.554688 488.765625 645.519531 489.3125 645.144531 L 495.972656 640.707031 L 503.140625 644.222656 C 503.722656 644.53125 504.4375 644.460938 504.984375 644.085938 L 511.644531 639.648438 L 518.8125 643.164062 C 519.394531 643.4375 520.109375 643.402344 520.65625 643.027344 L 527.316406 638.589844 L 534.484375 642.105469 C 535.066406 642.378906 535.785156 642.34375 536.328125 641.96875 L 542.988281 637.53125 L 550.160156 641.046875 C 550.738281 641.320312 551.457031 641.285156 552.003906 640.910156 L 558.660156 636.472656 L 565.863281 639.988281 C 566.445312 640.261719 567.164062 640.226562 567.707031 639.851562 L 571.53125 637.324219 L 570.066406 644.460938 L 485.726562 650.128906 Z M 484.738281 678.878906 L 486.207031 653.851562 L 570.167969 648.386719 L 573.035156 663.378906 C 571.53125 663.820312 567.980469 664.878906 566.445312 665.324219 L 560.605469 659.859375 C 559.480469 658.734375 557.363281 659.65625 557.464844 661.261719 C 557.535156 663.410156 557.804688 671.742188 557.875 674.097656 C 555.585938 680.210938 550.945312 692.707031 548.65625 698.785156 C 543.328125 713.023438 539.914062 727.980469 538.414062 743.070312 L 492.179688 746.074219 C 488.082031 724.972656 482.929688 700.289062 484.738281 678.878906 Z M 535 755.738281 L 527.828125 752.1875 C 527.246094 751.878906 526.53125 751.949219 525.984375 752.324219 L 519.324219 756.761719 L 512.15625 753.246094 C 511.574219 752.9375 510.859375 753.007812 510.3125 753.347656 L 503.652344 757.789062 C 503.277344 757.683594 495.800781 753.722656 495.664062 754.066406 C 494.84375 753.894531 491.53125 756.558594 490.816406 756.898438 L 492.285156 749.761719 C 494.367188 749.625 537.558594 746.828125 538.105469 746.792969 L 537.25 754.269531 Z M 617.660156 793.742188 C 617.183594 793.296875 616.5 793.125 615.851562 793.296875 L 608.167969 795.550781 L 602.332031 790.054688 C 601.851562 789.609375 601.171875 789.4375 600.519531 789.609375 L 592.839844 791.863281 L 587 786.367188 C 586.523438 785.921875 585.839844 785.75 585.191406 785.921875 L 577.507812 788.175781 L 571.667969 782.679688 C 571.191406 782.234375 570.507812 782.0625 569.859375 782.234375 L 562.175781 784.488281 L 556.441406 779.160156 C 555.960938 778.71875 555.28125 778.546875 554.632812 778.71875 L 546.949219 780.972656 L 541.109375 775.472656 C 540.632812 775.03125 539.949219 774.859375 539.300781 775.03125 L 534.929688 776.328125 L 538.414062 769.941406 C 558.933594 774.824219 600.214844 784.660156 620.699219 789.542969 L 620.941406 796.8125 Z M 640.0625 720.980469 C 638.285156 742.421875 628.996094 765.878906 621.417969 785.957031 L 539.574219 766.460938 C 540.394531 759.085938 541.691406 747.988281 542.511719 740.679688 C 544.082031 726.851562 547.324219 713.195312 552.242188 700.050781 C 554.324219 694.484375 558.933594 682.054688 560.980469 676.558594 C 581.402344 681.40625 622.441406 691.207031 642.859375 696.054688 Z M 643.886719 692.503906 L 561.597656 672.902344 L 561.359375 665.632812 L 564.667969 668.738281 C 565.148438 669.183594 565.832031 669.351562 566.480469 669.183594 C 568.253906 668.671875 572.421875 667.40625 574.160156 666.929688 L 580 672.425781 C 580.476562 672.871094 581.160156 673.039062 581.808594 672.871094 L 589.492188 670.617188 L 595.332031 676.113281 C 595.808594 676.558594 596.492188 676.726562 597.140625 676.558594 L 604.824219 674.304688 L 610.664062 679.800781 C 611.140625 680.246094 611.824219 680.414062 612.472656 680.246094 L 620.15625 677.992188 L 625.992188 683.488281 C 626.472656 683.933594 627.152344 684.105469 627.800781 683.933594 L 635.484375 681.679688 L 641.324219 687.175781 C 641.800781 687.621094 642.484375 687.792969 643.132812 687.621094 L 647.539062 686.324219 Z M 559.445312 733.75 C 560.128906 734.875 561.222656 735.660156 562.484375 735.96875 L 568.1875 737.335938 C 572.453125 755.738281 596.730469 761.613281 608.886719 747.03125 C 612.097656 747.578125 615.886719 749.488281 618.34375 747.816406 C 619.472656 747.132812 620.257812 746.042969 620.5625 744.777344 L 623.261719 733.511719 C 623.875 730.882812 622.269531 728.21875 619.609375 727.605469 L 613.90625 726.238281 C 611.824219 717.703125 605.128906 710.976562 596.527344 708.925781 C 587.921875 706.878906 578.875 709.847656 573.171875 716.539062 L 567.46875 715.175781 C 564.839844 714.558594 562.175781 716.199219 561.5625 718.828125 L 558.863281 730.097656 C 558.558594 731.292969 558.761719 732.621094 559.445312 733.75 Z M 586.488281 751.027344 C 579.863281 749.457031 574.570312 744.609375 572.351562 738.289062 L 604.789062 746.007812 C 599.976562 750.652344 593.078125 752.597656 586.488281 751.027344 Z M 595.636719 712.476562 C 602.261719 714.046875 607.519531 718.898438 609.742188 725.179688 L 577.304688 717.460938 C 582.117188 712.851562 589.015625 710.871094 595.636719 712.476562 Z M 562.484375 730.882812 L 565.183594 719.613281 C 565.320312 718.964844 566 718.554688 566.617188 718.726562 C 566.617188 718.726562 573.445312 720.363281 573.445312 720.363281 C 584.335938 722.960938 607.726562 728.527344 618.789062 731.15625 C 619.4375 731.324219 619.847656 731.972656 619.675781 732.589844 L 616.980469 743.855469 C 616.84375 744.503906 616.160156 744.914062 615.542969 744.742188 C 615.542969 744.742188 608.714844 743.105469 608.714844 743.105469 C 597.824219 740.511719 574.433594 734.945312 563.371094 732.316406 C 562.722656 732.214844 562.3125 731.496094 562.484375 730.882812 Z M 562.484375 730.882812 " fill-opacity="1" fill-rule="nonzero"/></g><g fill="#ffffff" fill-opacity="1"><g transform="translate(674.546687, 817.999134)"><g><path d="M 34.5 2.40625 C 26.582031 2.40625 20.359375 1.367188 15.828125 -0.703125 C 11.304688 -2.773438 8.125 -5.578125 6.28125 -9.109375 C 4.445312 -12.648438 3.53125 -16.585938 3.53125 -20.921875 L 3.53125 -64.1875 L 29.125 -64.1875 L 29.125 -20.78125 C 29.21875 -19.550781 29.570312 -18.5625 30.1875 -17.8125 C 30.800781 -17.0625 31.8125 -16.6875 33.21875 -16.6875 C 35.863281 -16.6875 37.1875 -18.050781 37.1875 -20.78125 C 37.1875 -25.78125 37.085938 -30.585938 36.890625 -35.203125 C 36.703125 -39.816406 36.375 -44.054688 35.90625 -47.921875 C 34.875 -57.441406 33.390625 -65.617188 31.453125 -72.453125 C 29.523438 -79.285156 27.332031 -85.382812 24.875 -90.75 C 22.425781 -96.125 19.976562 -101.210938 17.53125 -106.015625 C 15.082031 -110.828125 12.796875 -115.875 10.671875 -121.15625 C 8.554688 -126.4375 6.859375 -132.445312 5.578125 -139.1875 C 4.304688 -145.925781 3.671875 -153.957031 3.671875 -163.28125 L 3.671875 -170.921875 C 3.859375 -179.304688 6.425781 -185.335938 11.375 -189.015625 C 16.320312 -192.691406 23.367188 -194.53125 32.515625 -194.53125 C 42.785156 -194.53125 50.320312 -192.429688 55.125 -188.234375 C 59.9375 -184.046875 62.34375 -178.367188 62.34375 -171.203125 L 62.34375 -138.828125 L 37.609375 -138.828125 L 37.609375 -171.34375 C 37.609375 -174.070312 36.285156 -175.4375 33.640625 -175.4375 C 30.910156 -175.4375 29.546875 -174.070312 29.546875 -171.34375 C 29.546875 -168.039062 29.6875 -164.785156 29.96875 -161.578125 C 30.25 -158.378906 30.578125 -155.414062 30.953125 -152.6875 C 31.992188 -145.894531 33.503906 -139.859375 35.484375 -134.578125 C 37.460938 -129.304688 39.675781 -124.242188 42.125 -119.390625 C 44.582031 -114.535156 47.035156 -109.445312 49.484375 -104.125 C 51.929688 -98.800781 54.210938 -92.742188 56.328125 -85.953125 C 58.453125 -79.171875 60.148438 -71.253906 61.421875 -62.203125 C 62.691406 -53.148438 63.328125 -42.40625 63.328125 -29.96875 L 63.328125 -19.796875 C 63.234375 -12.347656 60.546875 -6.785156 55.265625 -3.109375 C 49.992188 0.566406 43.070312 2.40625 34.5 2.40625 Z M 34.5 2.40625 "/></g></g></g><g fill="#ffffff" fill-opacity="1"><g transform="translate(755.023891, 817.999134)"><g><path d="M 3.671875 0 L 3.671875 -192.265625 L 33.078125 -192.265625 L 36.046875 -164.140625 L 44.53125 -62.484375 L 45.953125 -62.484375 L 41.28125 -192.265625 L 66.15625 -192.265625 L 66.15625 0 L 36.75 0 L 33.640625 -27.984375 L 24.59375 -134.015625 L 22.90625 -134.015625 L 28.140625 0 Z M 3.671875 0 "/></g></g></g><g fill="#ffffff" fill-opacity="1"><g transform="translate(838.46991, 817.999134)"><g><path d="M 38.875 0 L 38.03125 -29.96875 L 30.109375 -29.96875 L 29.265625 0 L 0.984375 0 L 18.09375 -192.265625 L 49.90625 -192.265625 L 67.015625 0 Z M 30.53125 -46.65625 L 37.46875 -46.65625 L 34.5 -144.484375 L 33.359375 -144.484375 Z M 30.53125 -46.65625 "/></g></g></g><g fill="#ffffff" fill-opacity="1"><g transform="translate(916.261037, 817.999134)"><g><path d="M 36.046875 2.265625 C 14.085938 2.265625 3.109375 -7.960938 3.109375 -28.421875 L 3.109375 -163.84375 C 3.109375 -184.300781 14.085938 -194.53125 36.046875 -194.53125 C 57.441406 -194.53125 68.421875 -184.585938 68.984375 -164.703125 L 68.984375 -100.515625 L 40.015625 -100.515625 L 40.015625 -166.96875 C 40.015625 -169.695312 38.691406 -171.0625 36.046875 -171.0625 C 33.316406 -171.0625 31.953125 -169.695312 31.953125 -166.96875 L 31.953125 -25.3125 C 31.953125 -22.570312 33.316406 -21.203125 36.046875 -21.203125 C 38.691406 -21.203125 40.015625 -22.570312 40.015625 -25.3125 L 40.015625 -91.75 L 68.984375 -91.75 L 68.984375 -27.421875 C 68.421875 -7.628906 57.441406 2.265625 36.046875 2.265625 Z M 36.046875 2.265625 "/></g></g></g><g fill="#ffffff" fill-opacity="1"><g transform="translate(1001.969038, 817.999134)"><g><path d="M 3.671875 0 L 3.671875 -192.265625 L 31.8125 -192.265625 L 31.390625 -105.609375 L 34.78125 -105.609375 L 40.015625 -192.265625 L 69.40625 -192.265625 L 60.21875 -96.140625 L 69.984375 0 L 40.296875 0 L 34.78125 -85.8125 L 31.390625 -85.8125 L 31.8125 0 Z M 3.671875 0 "/></g></g></g><g transform="matrix(1, 0, 0, 1, 674, 835)"><g clip-path="url(#471113b044)"><g fill="#ffffff" fill-opacity="1"><g transform="translate(0.546694, 35.684671)"><g><path d="M 2.828125 0 C 2.828125 -4.195312 2.789062 -8.640625 2.71875 -13.328125 C 2.65625 -18.015625 2.535156 -22.890625 2.359375 -27.953125 C 3.648438 -28.304688 5.238281 -28.59375 7.125 -28.8125 C 9.019531 -29.039062 11.035156 -29.15625 13.171875 -29.15625 C 18.171875 -29.15625 21.960938 -27.914062 24.546875 -25.4375 C 27.128906 -22.957031 28.421875 -19.304688 28.421875 -14.484375 C 28.421875 -4.828125 23.421875 0 13.421875 0 Z M 9.65625 -5.984375 L 13.90625 -5.984375 C 15.125 -5.984375 16.195312 -6.0625 17.125 -6.21875 C 18.050781 -6.375 18.847656 -6.570312 19.515625 -6.8125 C 20.078125 -7.832031 20.46875 -8.96875 20.6875 -10.21875 C 20.914062 -11.476562 21.03125 -12.898438 21.03125 -14.484375 C 21.03125 -20.316406 18.390625 -23.234375 13.109375 -23.234375 C 12.128906 -23.234375 11.304688 -23.210938 10.640625 -23.171875 C 9.984375 -23.140625 9.65625 -23.125 9.65625 -23.125 Z M 9.65625 -5.984375 "/></g></g></g><g fill="#ffffff" fill-opacity="1"><g transform="translate(72.410953, 35.684671)"><g><path d="M 2.828125 0 C 2.828125 -8.5 2.671875 -17.726562 2.359375 -27.6875 C 3.367188 -27.96875 4.453125 -28.1875 5.609375 -28.34375 C 6.765625 -28.507812 8.269531 -28.59375 10.125 -28.59375 L 22.65625 -28.59375 C 22.832031 -27.78125 22.921875 -26.78125 22.921875 -25.59375 C 22.921875 -24.40625 22.832031 -23.410156 22.65625 -22.609375 L 9.65625 -22.609375 L 9.65625 -17.15625 L 21.140625 -17.15625 C 21.316406 -16.351562 21.40625 -15.390625 21.40625 -14.265625 C 21.40625 -13.148438 21.316406 -12.171875 21.140625 -11.328125 L 9.65625 -11.328125 L 9.65625 -5.984375 L 23.234375 -5.984375 C 23.410156 -5.140625 23.5 -4.128906 23.5 -2.953125 C 23.5 -1.785156 23.410156 -0.800781 23.234375 0 Z M 2.828125 0 "/></g></g></g><g fill="#ffffff" fill-opacity="1"><g transform="translate(139.239443, 35.684671)"><g><path d="M 2.828125 0 C 2.828125 -8.425781 2.671875 -17.691406 2.359375 -27.796875 C 4.734375 -28.640625 7.164062 -28.972656 9.65625 -28.796875 L 9.65625 -5.984375 L 22.140625 -5.984375 C 22.304688 -5.140625 22.390625 -4.128906 22.390625 -2.953125 C 22.390625 -1.785156 22.304688 -0.800781 22.140625 0 Z M 2.828125 0 "/></g></g></g><g fill="#ffffff" fill-opacity="1"><g transform="translate(204.389343, 35.684671)"><g><path d="M 2.828125 0.15625 C 2.828125 -8.375 2.671875 -17.691406 2.359375 -27.796875 C 4.734375 -28.640625 7.164062 -28.972656 9.65625 -28.796875 L 9.65625 -0.15625 C 9.164062 0.0507812 8.289062 0.21875 7.03125 0.34375 C 5.769531 0.46875 4.367188 0.40625 2.828125 0.15625 Z M 2.828125 0.15625 "/></g></g></g><g fill="#ffffff" fill-opacity="1"><g transform="translate(258.628411, 35.684671)"><g><path d="M 21.1875 -28.796875 C 22.207031 -28.867188 23.34375 -28.789062 24.59375 -28.5625 C 25.851562 -28.332031 26.972656 -28.023438 27.953125 -27.640625 L 18.671875 -0.109375 C 17.453125 0.0664062 15.984375 0.15625 14.265625 0.15625 C 12.554688 0.15625 11.085938 0.0664062 9.859375 -0.109375 L 0.53125 -27.640625 C 1.539062 -28.023438 2.726562 -28.332031 4.09375 -28.5625 C 5.457031 -28.789062 6.644531 -28.867188 7.65625 -28.796875 L 14.578125 -7.140625 Z M 21.1875 -28.796875 "/></g></g></g><g fill="#ffffff" fill-opacity="1"><g transform="translate(329.076414, 35.684671)"><g><path d="M 2.828125 0 C 2.828125 -8.5 2.671875 -17.726562 2.359375 -27.6875 C 3.367188 -27.96875 4.453125 -28.1875 5.609375 -28.34375 C 6.765625 -28.507812 8.269531 -28.59375 10.125 -28.59375 L 22.65625 -28.59375 C 22.832031 -27.78125 22.921875 -26.78125 22.921875 -25.59375 C 22.921875 -24.40625 22.832031 -23.410156 22.65625 -22.609375 L 9.65625 -22.609375 L 9.65625 -17.15625 L 21.140625 -17.15625 C 21.316406 -16.351562 21.40625 -15.390625 21.40625 -14.265625 C 21.40625 -13.148438 21.316406 -12.171875 21.140625 -11.328125 L 9.65625 -11.328125 L 9.65625 -5.984375 L 23.234375 -5.984375 C 23.410156 -5.140625 23.5 -4.128906 23.5 -2.953125 C 23.5 -1.785156 23.410156 -0.800781 23.234375 0 Z M 2.828125 0 "/></g></g></g><g fill="#ffffff" fill-opacity="1"><g transform="translate(395.904903, 35.684671)"><g><path d="M 2.828125 0.15625 C 2.828125 -8.300781 2.671875 -17.671875 2.359375 -27.953125 C 3.648438 -28.304688 5.238281 -28.59375 7.125 -28.8125 C 9.019531 -29.039062 11.035156 -29.15625 13.171875 -29.15625 C 16.703125 -29.15625 19.476562 -28.34375 21.5 -26.71875 C 23.53125 -25.09375 24.546875 -22.78125 24.546875 -19.78125 C 24.546875 -17.820312 24.046875 -16.164062 23.046875 -14.8125 C 22.054688 -13.46875 20.632812 -12.445312 18.78125 -11.75 L 26.21875 -0.78125 C 25.519531 -0.539062 24.691406 -0.332031 23.734375 -0.15625 C 22.773438 0.0195312 21.835938 0.140625 20.921875 0.203125 C 20.015625 0.273438 19.25 0.296875 18.625 0.265625 L 12.015625 -10.59375 L 9.65625 -10.59375 L 9.65625 -0.15625 C 9.164062 0.0507812 8.289062 0.21875 7.03125 0.34375 C 5.769531 0.46875 4.367188 0.40625 2.828125 0.15625 Z M 9.65625 -16.15625 L 13.109375 -16.15625 C 14.578125 -16.15625 15.75 -16.363281 16.625 -16.78125 C 17.082031 -17.476562 17.3125 -18.441406 17.3125 -19.671875 C 17.3125 -20.890625 16.878906 -21.785156 16.015625 -22.359375 C 15.160156 -22.941406 13.96875 -23.234375 12.4375 -23.234375 C 11.625 -23.234375 10.957031 -23.210938 10.4375 -23.171875 C 9.914062 -23.140625 9.65625 -23.125 9.65625 -23.125 Z M 9.65625 -16.15625 "/></g></g></g><g fill="#ffffff" fill-opacity="1"><g transform="translate(464.202209, 35.684671)"><g><path d="M 19.625 -28.796875 C 20.632812 -28.867188 21.828125 -28.789062 23.203125 -28.5625 C 24.585938 -28.332031 25.769531 -28.023438 26.75 -27.640625 L 16.890625 -10.125 L 16.890625 -0.15625 C 16.367188 0.0507812 15.476562 0.21875 14.21875 0.34375 C 12.957031 0.46875 11.554688 0.40625 10.015625 0.15625 C 10.054688 -1.382812 10.078125 -3.019531 10.078125 -4.75 C 10.078125 -6.476562 10.039062 -8.269531 9.96875 -10.125 L 0.109375 -27.640625 C 1.117188 -28.023438 2.304688 -28.332031 3.671875 -28.5625 C 5.035156 -28.789062 6.222656 -28.867188 7.234375 -28.796875 L 13.578125 -17.046875 Z M 19.625 -28.796875 "/></g></g></g></g></g></svg>